<svg width="157" height="108" viewBox="0 0 157 108" fill="none" xmlns="http://www.w3.org/2000/svg">
<path d="M156.414 108H0V0H156.414V108ZM7.28028 100.74H149.134V7.2597H7.28028V100.74Z" fill="#484848" fill-opacity="0.5"/>
<path d="M150.417 97.5422L102.822 56.8623L88.2295 76.3068L58.7877 46.9482L6.02966 92.7131L1.25098 87.2443L59.1404 37.066L87.4277 65.2733L101.668 46.3086L155.131 92.0095L150.417 97.5422Z" fill="#484848" fill-opacity="0.5"/>
<path d="M123.893 45.6369C120.798 45.6369 117.772 44.7216 115.198 43.0067C112.624 41.2918 110.618 38.8544 109.434 36.0026C108.249 33.1508 107.939 30.0128 108.543 26.9854C109.147 23.958 110.637 21.1772 112.826 18.9945C115.015 16.8119 117.804 15.3255 120.84 14.7233C123.876 14.1211 127.023 14.4302 129.883 15.6114C132.742 16.7926 135.187 18.793 136.907 21.3595C138.626 23.926 139.544 26.9434 139.544 30.0302C139.536 34.1667 137.884 38.1315 134.951 41.0565C132.017 43.9815 128.041 45.6285 123.893 45.6369ZM123.893 21.6511C122.231 21.6511 120.607 22.1425 119.225 23.0632C117.843 23.9839 116.766 25.2926 116.13 26.8236C115.494 28.3547 115.328 30.0395 115.652 31.6648C115.976 33.2902 116.776 34.7832 117.952 35.955C119.127 37.1269 120.624 37.9249 122.254 38.2482C123.884 38.5715 125.573 38.4056 127.109 37.7714C128.644 37.1372 129.957 36.0632 130.88 34.6853C131.803 33.3074 132.296 31.6874 132.296 30.0302C132.296 27.8079 131.411 25.6767 129.835 24.1053C128.259 22.5339 126.122 21.6511 123.893 21.6511Z" fill="#484848" fill-opacity="0.5"/>
</svg>
